# Blender 3.6.5
# www.blender.org
o Cube
v -1.000000 1.000000 -1.000000
v -1.000000 -1.000000 -1.000000
v 1.000000 1.000000 -1.000000
v 1.000000 -1.000000 -1.000000
v -1.000000 1.000000 1.000000
v -1.000000 -1.000000 1.000000
v 1.000000 1.000000 1.000000
v 1.000000 -1.000000 1.000000
v 1.000000 0.057667 0.000667
v 1.000000 -0.389333 0.048667
v 1.000000 0.292667 0.301667
v 1.000000 -0.028333 0.048667
v 1.000000 -0.389333 -0.049333
v 1.000000 -0.029333 -0.049333
v 1.000000 0.292667 -0.184333
v 1.000000 0.292667 -0.302333
v 1.000000 0.292667 0.183667
v -1.000000 0.057667 -0.000667
v -1.000000 0.292667 -0.301667
v -1.000000 -0.028333 -0.048667
v -1.000000 -0.389333 0.049333
v -1.000000 -0.029333 0.049333
v -1.000000 0.292667 0.184333
v -1.000000 0.292667 0.302333
v -1.000000 -0.122333 -0.584667
v -1.000000 0.292667 -0.183667
v -1.000000 -0.215333 -0.341667
v -1.000000 -0.122333 -0.341667
v -1.000000 -0.215333 -0.584667
v -1.000000 -0.389333 -0.048667
v -0.213250 0.329500 -1.000000
v -0.000250 0.069500 -1.000000
v 0.332750 0.329500 -1.000000
v 0.059750 0.000500 -1.000000
v 0.234750 -0.352500 -1.000000
v -0.000250 -0.070500 -1.000000
v -0.232250 -0.352500 -1.000000
v -0.059250 0.000500 -1.000000
v 0.638750 -0.085500 -1.000000
v 0.395750 -0.178500 -1.000000
v 0.213750 0.329500 -1.000000
v -0.331250 0.329500 -1.000000
v -0.350250 -0.352500 -1.000000
v 0.353750 -0.352500 -1.000000
v 0.395750 -0.085500 -1.000000
v 0.638750 -0.178500 -1.000000
v 0.213250 0.329500 1.000000
v 0.000250 0.069500 1.000000
v -0.332750 0.329500 1.000000
v -0.059750 0.000500 1.000000
v -0.234750 -0.352500 1.000000
v 0.000250 -0.070500 1.000000
v 0.232250 -0.352500 1.000000
v 0.059250 0.000500 1.000000
v 0.331250 0.329500 1.000000
v -0.213750 0.329500 1.000000
v 0.350250 -0.352500 1.000000
v -0.353750 -0.352500 1.000000
v 0.303600 -1.000000 -0.151800
v -0.290400 -1.000000 0.282200
v -0.290400 -1.000000 -0.332800
v 0.391600 -1.000000 -0.332800
v 0.391600 -1.000000 0.255200
v -0.202400 -1.000000 -0.332800
v -0.202400 -1.000000 0.101200
v 0.303600 -1.000000 0.255200
v -0.202400 1.000000 -0.101200
v 0.391600 1.000000 0.332800
v 0.391600 1.000000 -0.282200
v 0.303600 1.000000 0.151800
v -0.290400 1.000000 -0.282200
v -0.290400 1.000000 0.305800
v 0.124600 1.000000 0.631800
v 0.217600 1.000000 0.388800
v 0.303600 1.000000 -0.282200
v -0.202400 1.000000 0.305800
v 0.217600 1.000000 0.631800
v 0.124600 1.000000 0.388800
vn -0.0000 1.0000 -0.0000
vn 1.0000 -0.0000 -0.0000
vn -0.0000 -0.0000 1.0000
vn -0.0000 -1.0000 -0.0000
vn -0.0000 -0.0000 -1.0000
vn -1.0000 -0.0000 -0.0000
s 0
f 1//1 5//1 7//1 3//1
f 4//2 3//2 7//2 8//2
f 8//3 7//3 5//3 6//3
f 6//4 2//4 4//4 8//4
f 2//5 1//5 3//5 4//5
f 6//6 5//6 1//6 2//6
f 13//2 14//2 12//2 10//2
f 12//2 14//2 9//2
f 9//2 14//2 16//2 15//2
f 12//2 9//2 17//2 11//2
f 30//6 21//6 22//6 20//6
f 20//6 18//6 26//6 19//6
f 20//6 22//6 18//6
f 18//6 22//6 24//6 23//6
f 25//6 29//6 27//6 28//6
f 32//5 38//5 42//5 31//5
f 37//5 43//5 38//5 36//5
f 36//5 34//5 44//5 35//5
f 34//5 36//5 38//5 32//5
f 34//5 32//5 41//5 33//5
f 46//5 40//5 45//5 39//5
f 50//3 48//3 56//3 49//3
f 52//3 50//3 58//3 51//3
f 48//3 54//3 55//3 47//3
f 50//3 52//3 54//3 48//3
f 53//3 57//3 54//3 52//3
f 60//4 65//4 62//4 59//4
f 66//4 59//4 62//4 63//4
f 60//4 61//4 64//4 65//4
f 68//1 70//1 71//1 67//1
f 68//1 69//1 75//1 70//1
f 76//1 67//1 71//1 72//1
f 73//1 77//1 74//1 78//1
